<svg width="571" height="125" viewBox="0 0 571 125" fill="none" xmlns="http://www.w3.org/2000/svg">
<g clip-path="url(#clip0_267_5)">
<path d="M64.8227 1.10073C76.4246 1.10073 87.7554 0.393666 98.9565 1.28929C111.878 2.32043 122.473 13.3802 124.293 25.9601C126.308 39.8482 119.491 52.6167 107.029 58.3086C101.124 60.9851 94.512 61.6802 88.1796 60.2901C81.8473 58.9 76.1343 55.4993 71.8934 50.5956C67.2975 45.2926 64.7167 39.0999 64.6106 32.0822C64.4633 22.2716 64.5694 12.4551 64.5811 2.62094C64.6274 2.10936 64.7081 1.60146 64.8227 1.10073Z" fill="#238925"/>
<path d="M64.8241 124.786C64.7121 123.767 64.5825 123.107 64.5825 122.429C64.5825 113.001 64.3881 103.574 64.5825 94.1462C64.7086 86.7796 67.5367 79.716 72.5292 74.2977C77.5217 68.8794 84.3308 65.4841 91.6625 64.7569C98.9943 64.0297 106.338 66.0213 112.297 70.3533C118.257 74.6852 122.417 81.0557 123.988 88.254C128.036 106.597 114.49 124.197 95.7054 124.703C85.5471 125.004 75.3477 124.786 64.8241 124.786Z" fill="#238925"/>
<path d="M10.2579 60.1103C4.79319 60.9273 0.392578 56.2826 0.392578 50.7571V11.3771C0.392578 5.69235 5.00096 1.08398 10.6857 1.08398H50.2322C55.6998 1.08398 60.3175 5.39702 59.5235 10.8067C56.0248 34.6426 35.5195 56.3334 10.2579 60.1103Z" fill="#238925"/>
<path d="M59.4573 114.613C60.342 120.141 55.669 124.654 50.0703 124.654H10.6671C4.9824 124.654 0.374023 120.046 0.374023 114.361V74.7307C0.374023 69.3458 4.56209 64.764 9.89865 65.4844C32.8817 68.5867 55.2626 88.3997 59.4573 114.613Z" fill="#238925"/>
<path d="M54.9369 74.9449C53.4533 74.9646 51.9806 74.6884 50.6047 74.1323C49.2287 73.5761 47.9771 72.7512 46.9228 71.7056C45.8684 70.66 45.0325 69.4148 44.4636 68.0423C43.8948 66.6699 43.6044 65.1977 43.6095 63.7117C43.5742 62.1943 43.8487 60.6856 44.416 59.2781C44.9833 57.8707 45.8315 56.5941 46.9086 55.5265C47.9857 54.4588 49.2692 53.6226 50.6803 53.0691C52.0914 52.5156 53.6004 52.2563 55.115 52.3073C56.5967 52.314 58.0623 52.6153 59.4267 53.194C60.7911 53.7726 62.0271 54.617 63.063 55.678C64.0989 56.739 64.914 57.9954 65.461 59.3745C66.008 60.7536 66.276 62.228 66.2495 63.7117C66.2515 65.1956 65.9596 66.6651 65.3906 68.0352C64.8216 69.4054 63.9869 70.6488 62.9347 71.6936C61.8826 72.7384 60.6339 73.5636 59.2611 74.1217C57.8882 74.6799 56.4185 74.9596 54.9369 74.9449Z" fill="#238925"/>
<path d="M55.1465 48.1941L55.1768 48.1951H55.2061C57.0967 48.2036 58.9687 48.5645 60.7256 49.2585L61.0752 49.4021C62.8162 50.1404 64.404 51.1969 65.7578 52.5164L66.0264 52.7839C67.4367 54.2285 68.5461 55.9393 69.291 57.8171C70.036 59.6953 70.4014 61.7036 70.3652 63.7244V63.7644C70.3678 65.6595 70.0182 67.5374 69.3359 69.3025L69.1953 69.6541C68.4688 71.4035 67.4235 73.0008 66.1152 74.366L65.8506 74.6365C64.5073 75.9703 62.9285 77.0409 61.1963 77.7957L60.8477 77.9421C58.9786 78.702 56.9779 79.0833 54.9609 79.0632H54.5342C52.6435 79.0413 50.7721 78.6673 49.0166 77.9578C47.2607 77.248 45.6533 76.216 44.2764 74.9167L44.0049 74.6541C42.6592 73.3195 41.5742 71.7458 40.8057 70.0144L40.6562 69.6658C39.8816 67.7968 39.4863 65.7921 39.4932 63.7683V63.741L39.4922 63.7136C39.4473 61.7773 39.7731 59.8514 40.4502 58.0398L40.5898 57.6794C41.3136 55.8837 42.3737 54.2443 43.7109 52.8494L43.9824 52.574C45.3565 51.212 46.9769 50.1265 48.7559 49.3757L49.1133 49.2302C50.9128 48.5243 52.8298 48.1707 54.7598 48.1863L55.1465 48.1941Z" stroke="#238925" stroke-width="4.11724"/>
</g>
<path d="M165.062 106.148C163.357 106.147 161.977 104.765 161.977 103.06V94.1545C161.977 92.4491 163.359 91.0666 165.064 91.0666H170.955C172.66 91.0666 174.043 89.6841 174.043 87.9786V33.1925C174.043 31.4871 172.66 30.1046 170.955 30.1046H165.064C163.359 30.1046 161.977 28.7221 161.977 27.0167V18.1136C161.977 16.4082 163.359 15.0257 165.064 15.0257H209.199C214.22 14.9186 219.206 15.8732 223.826 17.826C227.752 19.5106 231.116 22.267 233.527 25.7748C235.918 29.4296 237.136 33.7185 237.02 38.0749V39.3889C237.16 42.9406 236.343 46.4649 234.655 49.5995C233.283 52.0294 231.377 54.1206 229.078 55.7172C227.524 56.7963 225.848 57.6885 224.085 58.3758C223.431 58.631 222.98 59.2495 222.98 59.9519C222.98 60.6732 223.455 61.3038 224.134 61.5456C225.942 62.1888 227.668 63.0449 229.273 64.0968C231.68 65.6749 233.68 67.7926 235.111 70.2791C236.858 73.5182 237.697 77.1635 237.541 80.8344V82.1269C237.66 86.6887 236.422 91.1841 233.982 95.0517C231.602 98.6837 228.209 101.55 224.217 103.302C219.656 105.307 214.707 106.293 209.72 106.189L165.062 106.148ZM191.361 49.4627C191.361 51.1681 192.743 52.5507 194.448 52.5507H207.355C210.543 52.6847 213.679 51.7179 216.23 49.8149C217.369 48.9202 218.277 47.7704 218.88 46.4598C219.484 45.1492 219.766 43.7151 219.703 42.2754V40.9614C219.782 39.5166 219.515 38.0738 218.922 36.7517C218.33 35.4297 217.43 34.2664 216.296 33.3574C213.712 31.4759 210.555 30.5327 207.355 30.6861H194.448C192.743 30.6861 191.361 32.0687 191.361 33.7741V49.4627ZM191.361 87.4832C191.361 89.1886 192.743 90.5712 194.448 90.5712H207.637C210.901 90.7265 214.12 89.7603 216.751 87.8354C217.909 86.8996 218.827 85.7053 219.43 84.35C220.034 82.9947 220.306 81.5169 220.224 80.0374V78.7234C220.308 77.2499 220.044 75.7771 219.452 74.423C218.861 73.069 217.958 71.8712 216.816 70.9255C214.17 68.9813 210.924 68.0138 207.637 68.1897H194.448C192.743 68.1897 191.361 69.5722 191.361 71.2776V87.4832Z" fill="#238925"/>
<path d="M279.119 107.956C273.151 108.085 267.251 106.675 261.997 103.863C257.11 101.177 253.102 97.1544 250.451 92.2736C247.593 86.8348 246.174 80.7639 246.328 74.6312V73.0588C246.173 66.9336 247.568 60.8676 250.386 55.4164C252.987 50.5425 256.951 46.5181 261.801 43.8272C267.03 41.0098 272.911 39.5988 278.859 39.7343C284.702 39.6147 290.464 41.1061 295.504 44.0425C300.21 46.8488 304.029 50.9086 306.528 55.761C309.242 61.1526 310.59 67.1195 310.456 73.1449V75.6577C310.456 77.3631 309.074 78.7456 307.368 78.7456H266.233C264.511 78.7456 263.09 80.1694 263.481 81.8459C263.706 82.8103 264.03 83.7521 264.449 84.6563C265.308 86.5115 266.55 88.1671 268.095 89.5163C271.273 92.3046 275.4 93.7908 279.64 93.6738C283.304 93.9787 286.951 92.9104 289.861 90.6796C291.154 89.536 292.296 88.2396 293.261 86.8222C294.246 85.3757 296.143 84.7159 297.696 85.5237L305.515 89.5919C307.065 90.3984 307.647 92.3365 306.673 93.7874C305.58 95.4177 304.371 96.9706 303.056 98.4344C300.466 101.286 297.321 103.587 293.811 105.198C289.187 107.208 284.164 108.15 279.119 107.956ZM264.115 63.0209C263.431 64.7576 264.891 66.424 266.758 66.424H290.317C292.103 66.424 293.547 64.8899 292.981 63.1966C292.784 62.6085 292.544 62.0338 292.263 61.4773C291.484 59.9345 290.402 58.5622 289.08 57.4413C286.017 55.244 282.334 54.0611 278.555 54.0611C274.776 54.0611 271.093 55.244 268.03 57.4413C266.287 58.9795 264.952 60.8957 264.115 63.0209Z" fill="#238925"/>
<path d="M323.105 106.154C321.403 106.149 320.025 104.768 320.025 103.066V88.063C320.025 87.1411 320.437 86.2674 321.149 85.6808L355.17 57.6209C355.507 57.3428 355.703 56.9286 355.703 56.4915C355.703 55.683 355.047 55.0276 354.239 55.0276H324.437C322.732 55.0276 321.349 53.6451 321.349 51.9397V44.566C321.349 42.8605 322.732 41.478 324.437 41.478H370.735C372.441 41.478 373.823 42.8605 373.823 44.566V59.711C373.823 60.6329 373.411 61.5066 372.7 62.0932L338.679 90.1531C338.341 90.4312 338.146 90.8454 338.146 91.2825C338.146 92.091 338.802 92.7464 339.61 92.7464H371.777C373.483 92.7464 374.865 94.1289 374.865 95.8343V103.2C374.865 104.908 373.477 106.292 371.769 106.287L323.105 106.154Z" fill="#238925"/>
<path d="M418.551 107.956C412.535 108.042 406.584 106.705 401.19 104.057C396.108 101.528 391.872 97.5929 388.994 92.7266C385.893 87.297 384.347 81.1291 384.523 74.8903V72.7362C384.347 66.4974 385.893 60.3297 388.994 54.9001C391.872 50.0338 396.108 46.0985 401.19 43.5693C406.643 41.0018 412.603 39.6699 418.638 39.6699C424.673 39.6699 430.633 41.0018 436.086 43.5693C441.164 46.1046 445.398 50.0384 448.282 54.9001C451.375 60.3319 452.914 66.4994 452.731 72.7362V74.8903C452.914 81.1271 451.375 87.2948 448.282 92.7266C445.398 97.5883 441.164 101.522 436.086 104.057C430.64 106.732 424.627 108.069 418.551 107.956ZM418.551 93.4283C418.551 93.398 418.576 93.3737 418.607 93.3746C420.911 93.4419 423.205 93.0469 425.351 92.213C427.515 91.3723 429.484 90.1031 431.138 88.4829C432.884 86.6117 434.227 84.4069 435.085 82.0032C435.943 79.5995 436.298 77.0473 436.13 74.5026V73.1886C436.296 70.6461 435.946 68.0963 435.1 65.6908C434.253 63.2854 432.928 61.0735 431.203 59.1868C427.758 56.0548 423.256 54.3176 418.584 54.3176C413.912 54.3176 409.41 56.0548 405.964 59.1868C404.216 61.0606 402.872 63.2689 402.014 65.6765C401.155 68.0841 400.801 70.6404 400.973 73.1886V74.5026C400.799 77.0477 401.152 79.6012 402.011 82.0057C402.869 84.4101 404.215 86.6145 405.964 88.4829C407.608 90.1236 409.573 91.4132 411.738 92.2726C413.886 93.1256 416.186 93.537 418.499 93.4819C418.528 93.4812 418.551 93.4574 418.551 93.4283Z" fill="#238925"/>
<path d="M468.211 106.146C466.506 106.146 465.123 104.763 465.123 103.058V44.6098C465.123 42.9044 466.506 41.5219 468.211 41.5219H478.29C479.995 41.5219 481.377 42.9044 481.377 44.6099V48.5132C481.377 49.3275 482.038 49.9877 482.852 49.9877C483.4 49.9877 483.898 49.6811 484.178 49.2099C485.533 46.9257 487.403 44.9789 489.646 43.5253C492.532 41.5004 496.894 40.4664 502.667 40.4664C507.344 40.3672 511.958 41.5604 515.991 43.913C519.777 46.2085 522.843 49.5055 524.846 53.4342C527.027 57.8162 528.107 62.6575 527.992 67.5439V103.015C527.992 104.72 526.61 106.103 524.905 106.103H514.544C512.838 106.103 511.456 104.72 511.456 103.015V68.901C511.76 64.924 510.465 60.9892 507.853 57.958C506.48 56.6864 504.859 55.7073 503.09 55.0812C501.321 54.4551 499.441 54.1953 497.567 54.3175C495.342 54.1927 493.119 54.5808 491.071 55.4516C489.022 56.3224 487.205 57.6522 485.761 59.3367C482.739 63.357 481.247 68.3096 481.551 73.317V103.058C481.551 104.763 480.169 106.146 478.463 106.146H468.211Z" fill="#238925"/>
<path d="M551.43 34.0045C548.631 34.0738 545.917 33.0442 543.878 31.1395C541.89 29.1262 540.776 26.4193 540.776 23.6C540.776 20.7808 541.89 18.0739 543.878 16.0606C545.917 14.1558 548.631 13.1263 551.43 13.1955C552.825 13.1472 554.215 13.3758 555.519 13.8678C556.823 14.3598 558.016 15.1053 559.026 16.0606C560.959 18.102 562.035 20.7983 562.035 23.6C562.035 26.4018 560.959 29.0981 559.026 31.1395C558.016 32.0948 556.823 32.8403 555.519 33.3323C554.215 33.8243 552.825 34.0528 551.43 34.0045ZM546.25 106.146C544.545 106.146 543.162 104.764 543.162 103.059V44.6104C543.162 42.905 544.545 41.5224 546.25 41.5224H556.611C558.316 41.5224 559.699 42.905 559.699 44.6104V103.059C559.699 104.764 558.316 106.146 556.611 106.146H546.25Z" fill="#238925"/>
<defs>
<clipPath id="clip0_267_5">
<rect width="124.356" height="124.032" fill="white" transform="translate(0.374023 0.835693)"/>
</clipPath>
</defs>
</svg>
