<svg width="571" height="125" viewBox="0 0 571 125" fill="none" xmlns="http://www.w3.org/2000/svg">
<g clip-path="url(#clip0_267_117)">
<path d="M64.8227 0.761132C76.4246 0.761132 87.7554 0.0540659 98.9565 0.949688C111.878 1.98083 122.473 13.0406 124.293 25.6205C126.308 39.5086 119.491 52.2771 107.029 57.969C101.124 60.6455 94.512 61.3406 88.1796 59.9505C81.8473 58.5604 76.1343 55.1597 71.8934 50.256C67.2975 44.953 64.7167 38.7603 64.6106 31.7426C64.4633 21.932 64.5694 12.1155 64.5811 2.28134C64.6274 1.76976 64.7081 1.26186 64.8227 0.761132Z" fill="black"/>
<path d="M64.8241 124.447C64.7121 123.427 64.5825 122.768 64.5825 122.09C64.5825 112.662 64.3881 103.235 64.5825 93.8071C64.7086 86.4405 67.5367 79.3769 72.5292 73.9586C77.5217 68.5403 84.3308 65.145 91.6625 64.4178C98.9943 63.6906 106.338 65.6822 112.297 70.0141C118.257 74.3461 122.417 80.7166 123.988 87.9149C128.036 106.257 114.49 123.858 95.7054 124.364C85.5471 124.665 75.3477 124.447 64.8241 124.447Z" fill="black"/>
<path d="M10.2579 59.7709C4.79319 60.5879 0.392578 55.9432 0.392578 50.4177V11.0377C0.392578 5.353 5.00096 0.744629 10.6857 0.744629H50.2322C55.6998 0.744629 60.3175 5.05767 59.5235 10.4673C56.0248 34.3033 35.5195 55.994 10.2579 59.7709Z" fill="black"/>
<path d="M59.4573 114.273C60.342 119.802 55.669 124.314 50.0703 124.314H10.6671C4.9824 124.314 0.374023 119.706 0.374023 114.021V74.3911C0.374023 69.0062 4.56209 64.4244 9.89865 65.1448C32.8817 68.2471 55.2626 88.0601 59.4573 114.273Z" fill="black"/>
<path d="M54.9369 74.6053C53.4533 74.625 51.9806 74.3488 50.6047 73.7927C49.2287 73.2365 47.9771 72.4116 46.9228 71.366C45.8684 70.3204 45.0325 69.0752 44.4636 67.7027C43.8948 66.3303 43.6044 64.8581 43.6095 63.3721C43.5742 61.8547 43.8487 60.346 44.416 58.9385C44.9833 57.5311 45.8315 56.2545 46.9086 55.1869C47.9857 54.1192 49.2692 53.283 50.6803 52.7295C52.0914 52.176 53.6004 51.9167 55.115 51.9677C56.5967 51.9744 58.0623 52.2757 59.4267 52.8544C60.7911 53.433 62.0271 54.2774 63.063 55.3384C64.0989 56.3994 64.914 57.6558 65.461 59.0349C66.008 60.414 66.276 61.8884 66.2495 63.3721C66.2515 64.856 65.9596 66.3255 65.3906 67.6956C64.8216 69.0658 63.9869 70.3092 62.9347 71.354C61.8826 72.3988 60.6339 73.224 59.2611 73.7822C57.8882 74.3403 56.4185 74.62 54.9369 74.6053Z" fill="black"/>
<path d="M55.1465 47.8545L55.1768 47.8555H55.2061C57.0967 47.864 58.9687 48.2249 60.7256 48.9189L61.0752 49.0625C62.8162 49.8008 64.404 50.8573 65.7578 52.1768L66.0264 52.4443C67.4367 53.8889 68.5461 55.5997 69.291 57.4775C70.036 59.3557 70.4014 61.364 70.3652 63.3848V63.4248C70.3678 65.3199 70.0182 67.1978 69.3359 68.9629L69.1953 69.3145C68.4688 71.0639 67.4235 72.6612 66.1152 74.0264L65.8506 74.2969C64.5073 75.6307 62.9285 76.7013 61.1963 77.4561L60.8477 77.6025C58.9786 78.3624 56.9779 78.7437 54.9609 78.7236H54.5342C52.6435 78.7017 50.7721 78.3277 49.0166 77.6182C47.2607 76.9084 45.6533 75.8764 44.2764 74.5771L44.0049 74.3145C42.6592 72.9799 41.5742 71.4062 40.8057 69.6748L40.6562 69.3262C39.8816 67.4572 39.4863 65.4525 39.4932 63.4287V63.4014L39.4922 63.374C39.4473 61.4377 39.7731 59.5118 40.4502 57.7002L40.5898 57.3398C41.3136 55.5441 42.3737 53.9047 43.7109 52.5098L43.9824 52.2344C45.3565 50.8724 46.9769 49.7869 48.7559 49.0361L49.1133 48.8906C50.9128 48.1847 52.8298 47.8311 54.7598 47.8467L55.1465 47.8545Z" stroke="black" stroke-width="4.11724"/>
</g>
<path d="M165.062 105.809C163.357 105.807 161.977 104.425 161.977 102.721V93.8151C161.977 92.1097 163.359 90.7272 165.064 90.7272H170.955C172.66 90.7272 174.043 89.3447 174.043 87.6393V32.8532C174.043 31.1478 172.66 29.7653 170.955 29.7653H165.064C163.359 29.7653 161.977 28.3827 161.977 26.6773V17.7743C161.977 16.0688 163.359 14.6863 165.064 14.6863H209.199C214.22 14.5793 219.206 15.5339 223.826 17.4867C227.752 19.1712 231.116 21.9277 233.527 25.4354C235.918 29.0903 237.136 33.3791 237.02 37.7356V39.0496C237.16 42.6012 236.343 46.1255 234.655 49.2601C233.283 51.6901 231.377 53.7812 229.078 55.3778C227.524 56.457 225.848 57.3492 224.085 58.0365C223.431 58.2916 222.98 58.9102 222.98 59.6125C222.98 60.3339 223.455 60.9645 224.134 61.2062C225.942 61.8494 227.668 62.7056 229.273 63.7574C231.68 65.3355 233.68 67.4533 235.111 69.9398C236.858 73.1789 237.697 76.8242 237.541 80.4951V81.7875C237.66 86.3493 236.422 90.8447 233.982 94.7123C231.602 98.3443 228.209 101.211 224.217 102.963C219.656 104.968 214.707 105.953 209.72 105.849L165.062 105.809ZM191.361 49.1234C191.361 50.8288 192.743 52.2113 194.448 52.2113H207.355C210.543 52.3453 213.679 51.3785 216.23 49.4755C217.369 48.5809 218.277 47.4311 218.88 46.1205C219.484 44.8098 219.766 43.3758 219.703 41.936V40.622C219.782 39.1773 219.515 37.7344 218.922 36.4124C218.33 35.0903 217.43 33.927 216.296 33.018C213.712 31.1365 210.555 30.1934 207.355 30.3468H194.448C192.743 30.3468 191.361 31.7293 191.361 33.4347V49.1234ZM191.361 87.1439C191.361 88.8493 192.743 90.2318 194.448 90.2318H207.637C210.901 90.3872 214.12 89.421 216.751 87.496C217.909 86.5602 218.827 85.366 219.43 84.0107C220.034 82.6554 220.306 81.1776 220.224 79.6981V78.3841C220.308 76.9105 220.044 75.4378 219.452 74.0837C218.861 72.7296 217.958 71.5318 216.816 70.5861C214.17 68.6419 210.924 67.6744 207.637 67.8503H194.448C192.743 67.8503 191.361 69.2328 191.361 70.9383V87.1439Z" fill="black"/>
<path d="M279.119 107.616C273.151 107.746 267.251 106.336 261.997 103.523C257.11 100.837 253.102 96.8148 250.451 91.934C247.593 86.4952 246.174 80.4243 246.328 74.2916V72.7192C246.173 66.594 247.568 60.528 250.386 55.0768C252.987 50.2029 256.951 46.1785 261.801 43.4876C267.03 40.6702 272.911 39.2592 278.859 39.3947C284.702 39.2751 290.464 40.7665 295.504 43.7029C300.21 46.5092 304.029 50.569 306.528 55.4214C309.242 60.813 310.59 66.7799 310.456 72.8053V75.3181C310.456 77.0235 309.074 78.406 307.368 78.406H266.233C264.511 78.406 263.09 79.8298 263.481 81.5063C263.706 82.4707 264.03 83.4125 264.449 84.3167C265.308 86.1719 266.55 87.8275 268.095 89.1767C271.273 91.965 275.4 93.4512 279.64 93.3342C283.304 93.6391 286.951 92.5708 289.861 90.34C291.154 89.1964 292.296 87.9 293.261 86.4826C294.246 85.0361 296.143 84.3763 297.696 85.1841L305.515 89.2523C307.065 90.0588 307.647 91.9969 306.673 93.4478C305.58 95.0781 304.371 96.631 303.056 98.0948C300.466 100.946 297.321 103.247 293.811 104.859C289.187 106.868 284.164 107.811 279.119 107.616ZM264.115 62.6813C263.431 64.418 264.891 66.0844 266.758 66.0844H290.317C292.103 66.0844 293.547 64.5503 292.981 62.857C292.784 62.2689 292.544 61.6942 292.263 61.1377C291.484 59.5949 290.402 58.2226 289.08 57.1017C286.017 54.9044 282.334 53.7215 278.555 53.7215C274.776 53.7215 271.093 54.9044 268.03 57.1017C266.287 58.6399 264.952 60.5561 264.115 62.6813Z" fill="black"/>
<path d="M323.105 105.814C321.403 105.81 320.025 104.428 320.025 102.726V87.7237C320.025 86.8018 320.437 85.9281 321.149 85.3415L355.17 57.2815C355.507 57.0035 355.703 56.5893 355.703 56.1522C355.703 55.3437 355.047 54.6883 354.239 54.6883H324.437C322.732 54.6883 321.349 53.3057 321.349 51.6003V44.2266C321.349 42.5212 322.732 41.1387 324.437 41.1387H370.735C372.441 41.1387 373.823 42.5212 373.823 44.2266V59.3716C373.823 60.2935 373.411 61.1672 372.7 61.7538L338.679 89.8137C338.341 90.0918 338.146 90.506 338.146 90.9431C338.146 91.7516 338.802 92.407 339.61 92.407H371.777C373.483 92.407 374.865 93.7895 374.865 95.495V102.86C374.865 104.569 373.477 105.953 371.769 105.948L323.105 105.814Z" fill="black"/>
<path d="M418.551 107.617C412.535 107.702 406.584 106.366 401.19 103.718C396.108 101.189 391.872 97.2535 388.994 92.3873C385.893 86.9576 384.347 80.7898 384.523 74.551V72.3969C384.347 66.1581 385.893 59.9904 388.994 54.5607C391.872 49.6944 396.108 45.7592 401.19 43.2299C406.643 40.6625 412.603 39.3306 418.638 39.3306C424.673 39.3306 430.633 40.6625 436.086 43.2299C441.164 45.7652 445.398 49.6991 448.282 54.5607C451.375 59.9925 452.914 66.1601 452.731 72.3969V74.551C452.914 80.7878 451.375 86.9555 448.282 92.3873C445.398 97.2489 441.164 101.183 436.086 103.718C430.64 106.393 424.627 107.73 418.551 107.617ZM418.551 93.0889C418.551 93.0586 418.576 93.0343 418.607 93.0352C420.911 93.1026 423.205 92.7076 425.351 91.8736C427.515 91.0329 429.484 89.7638 431.138 88.1436C432.884 86.2723 434.227 84.0675 435.085 81.6638C435.943 79.2601 436.298 76.7079 436.13 74.1633V72.8493C436.296 70.3068 435.946 67.7569 435.1 65.3515C434.253 62.9461 432.928 60.7342 431.203 58.8474C427.758 55.7155 423.256 53.9783 418.584 53.9783C413.912 53.9783 409.41 55.7155 405.964 58.8474C404.216 60.7212 402.872 62.9295 402.014 65.3372C401.155 67.7448 400.801 70.3011 400.973 72.8493V74.1633C400.799 76.7084 401.152 79.2619 402.011 81.6663C402.869 84.0708 404.215 86.2752 405.964 88.1436C407.608 89.7842 409.573 91.0739 411.738 91.9333C413.886 92.7863 416.186 93.1976 418.499 93.1425C418.528 93.1418 418.551 93.118 418.551 93.0889Z" fill="black"/>
<path d="M468.211 105.806C466.506 105.806 465.123 104.424 465.123 102.718V44.2702C465.123 42.5648 466.506 41.1823 468.211 41.1823H478.29C479.995 41.1823 481.377 42.5648 481.377 44.2703V48.1736C481.377 48.9879 482.038 49.6481 482.852 49.6481C483.4 49.6481 483.898 49.3415 484.178 48.8703C485.533 46.5861 487.403 44.6393 489.646 43.1857C492.532 41.1608 496.894 40.1268 502.667 40.1268C507.344 40.0276 511.958 41.2208 515.991 43.5734C519.777 45.8689 522.843 49.1659 524.846 53.0946C527.027 57.4766 528.107 62.3179 527.992 67.2043V102.675C527.992 104.381 526.61 105.763 524.905 105.763H514.544C512.838 105.763 511.456 104.381 511.456 102.675V68.5614C511.76 64.5844 510.465 60.6496 507.853 57.6184C506.48 56.3468 504.859 55.3677 503.09 54.7416C501.321 54.1155 499.441 53.8557 497.567 53.9779C495.342 53.8531 493.119 54.2412 491.071 55.112C489.022 55.9828 487.205 57.3126 485.761 58.9971C482.739 63.0174 481.247 67.97 481.551 72.9774V102.718C481.551 104.424 480.169 105.806 478.463 105.806H468.211Z" fill="black"/>
<path d="M551.43 33.6649C548.631 33.7342 545.917 32.7046 543.878 30.7999C541.89 28.7866 540.776 26.0797 540.776 23.2604C540.776 20.4412 541.89 17.7343 543.878 15.721C545.917 13.8162 548.631 12.7867 551.43 12.8559C552.825 12.8076 554.215 13.0362 555.519 13.5282C556.823 14.0202 558.016 14.7657 559.026 15.721C560.959 17.7624 562.035 20.4587 562.035 23.2604C562.035 26.0622 560.959 28.7585 559.026 30.7999C558.016 31.7552 556.823 32.5007 555.519 32.9927C554.215 33.4847 552.825 33.7132 551.43 33.6649ZM546.25 105.807C544.545 105.807 543.162 104.424 543.162 102.719V44.2708C543.162 42.5654 544.545 41.1828 546.25 41.1828H556.611C558.316 41.1828 559.699 42.5654 559.699 44.2708V102.719C559.699 104.424 558.316 105.807 556.611 105.807H546.25Z" fill="black"/>
<defs>
<clipPath id="clip0_267_117">
<rect width="124.356" height="124.032" fill="white" transform="translate(0.374023 0.496094)"/>
</clipPath>
</defs>
</svg>
