<svg width="579" height="133" viewBox="0 0 579 133" fill="none" xmlns="http://www.w3.org/2000/svg">
<g filter="url(#filter0_d_267_117)">
<g clip-path="url(#clip0_267_117)">
<path d="M68.8227 0.761132C80.4246 0.761132 91.7554 0.0540659 102.957 0.949688C115.878 1.98083 126.473 13.0406 128.293 25.6205C130.308 39.5086 123.491 52.2771 111.029 57.969C105.124 60.6455 98.512 61.3406 92.1796 59.9505C85.8473 58.5604 80.1343 55.1597 75.8934 50.256C71.2975 44.953 68.7167 38.7603 68.6106 31.7426C68.4633 21.932 68.5694 12.1155 68.5811 2.28134C68.6274 1.76976 68.7081 1.26186 68.8227 0.761132Z" fill="black"/>
<path d="M68.8241 124.447C68.7121 123.427 68.5825 122.768 68.5825 122.09C68.5825 112.662 68.3881 103.235 68.5825 93.8071C68.7086 86.4405 71.5367 79.3769 76.5292 73.9586C81.5217 68.5403 88.3308 65.145 95.6625 64.4178C102.994 63.6906 110.338 65.6822 116.297 70.0141C122.257 74.3461 126.417 80.7166 127.988 87.9149C132.036 106.257 118.49 123.858 99.7054 124.364C89.5471 124.665 79.3477 124.447 68.8241 124.447Z" fill="black"/>
<path d="M14.2579 59.7709C8.79319 60.5879 4.39258 55.9432 4.39258 50.4177V11.0377C4.39258 5.353 9.00096 0.744629 14.6857 0.744629H54.2322C59.6998 0.744629 64.3175 5.05767 63.5235 10.4673C60.0248 34.3033 39.5195 55.994 14.2579 59.7709Z" fill="black"/>
<path d="M63.4573 114.273C64.342 119.802 59.669 124.314 54.0703 124.314H14.6671C8.9824 124.314 4.37402 119.706 4.37402 114.021V74.3911C4.37402 69.0062 8.56209 64.4244 13.8987 65.1448C36.8817 68.2471 59.2626 88.0601 63.4573 114.273Z" fill="black"/>
<path d="M58.9369 74.6053C57.4533 74.625 55.9806 74.3488 54.6047 73.7927C53.2287 73.2365 51.9771 72.4116 50.9228 71.366C49.8684 70.3204 49.0325 69.0752 48.4636 67.7027C47.8948 66.3303 47.6044 64.8581 47.6095 63.3721C47.5742 61.8547 47.8487 60.346 48.416 58.9385C48.9833 57.5311 49.8315 56.2545 50.9086 55.1869C51.9857 54.1192 53.2692 53.283 54.6803 52.7295C56.0914 52.176 57.6004 51.9167 59.115 51.9677C60.5967 51.9744 62.0623 52.2757 63.4267 52.8544C64.7911 53.433 66.0271 54.2774 67.063 55.3384C68.0989 56.3994 68.914 57.6558 69.461 59.0349C70.008 60.414 70.276 61.8884 70.2495 63.3721C70.2515 64.856 69.9596 66.3255 69.3906 67.6956C68.8216 69.0658 67.9869 70.3092 66.9347 71.354C65.8826 72.3988 64.6339 73.224 63.2611 73.7822C61.8882 74.3403 60.4185 74.62 58.9369 74.6053Z" fill="black"/>
<path d="M59.1465 47.8545L59.1768 47.8555H59.2061C61.0967 47.864 62.9687 48.2249 64.7256 48.9189L65.0752 49.0625C66.8162 49.8008 68.404 50.8573 69.7578 52.1768L70.0264 52.4443C71.4367 53.8889 72.5461 55.5997 73.291 57.4775C74.036 59.3557 74.4014 61.364 74.3652 63.3848V63.4248C74.3678 65.3199 74.0182 67.1978 73.3359 68.9629L73.1953 69.3145C72.4688 71.0639 71.4235 72.6612 70.1152 74.0264L69.8506 74.2969C68.5073 75.6307 66.9285 76.7013 65.1963 77.4561L64.8477 77.6025C62.9786 78.3624 60.9779 78.7437 58.9609 78.7236H58.5342C56.6435 78.7017 54.7721 78.3277 53.0166 77.6182C51.2607 76.9084 49.6533 75.8764 48.2764 74.5771L48.0049 74.3145C46.6592 72.9799 45.5742 71.4062 44.8057 69.6748L44.6562 69.3262C43.8816 67.4572 43.4863 65.4525 43.4932 63.4287V63.4014L43.4922 63.374C43.4473 61.4377 43.7731 59.5118 44.4502 57.7002L44.5898 57.3398C45.3136 55.5441 46.3737 53.9047 47.7109 52.5098L47.9824 52.2344C49.3565 50.8724 50.9769 49.7869 52.7559 49.0361L53.1133 48.8906C54.9128 48.1847 56.8298 47.8311 58.7598 47.8467L59.1465 47.8545Z" stroke="black" stroke-width="4.11724"/>
</g>
<path d="M169.062 105.809C167.357 105.807 165.977 104.425 165.977 102.721V93.8151C165.977 92.1097 167.359 90.7272 169.064 90.7272H174.955C176.66 90.7272 178.043 89.3447 178.043 87.6393V32.8532C178.043 31.1478 176.66 29.7653 174.955 29.7653H169.064C167.359 29.7653 165.977 28.3827 165.977 26.6773V17.7743C165.977 16.0688 167.359 14.6863 169.064 14.6863H213.199C218.22 14.5793 223.206 15.5339 227.826 17.4867C231.752 19.1712 235.116 21.9277 237.527 25.4354C239.918 29.0903 241.136 33.3791 241.02 37.7356V39.0496C241.16 42.6012 240.343 46.1255 238.655 49.2601C237.283 51.6901 235.377 53.7812 233.078 55.3778C231.524 56.457 229.848 57.3492 228.085 58.0365C227.431 58.2916 226.98 58.9102 226.98 59.6125C226.98 60.3339 227.455 60.9645 228.134 61.2062C229.942 61.8494 231.668 62.7056 233.273 63.7574C235.68 65.3355 237.68 67.4533 239.111 69.9398C240.858 73.1789 241.697 76.8242 241.541 80.4951V81.7875C241.66 86.3493 240.422 90.8447 237.982 94.7123C235.602 98.3443 232.209 101.211 228.217 102.963C223.656 104.968 218.707 105.953 213.72 105.849L169.062 105.809ZM195.361 49.1234C195.361 50.8288 196.743 52.2113 198.448 52.2113H211.355C214.543 52.3453 217.679 51.3785 220.23 49.4755C221.369 48.5809 222.277 47.4311 222.88 46.1205C223.484 44.8098 223.766 43.3758 223.703 41.936V40.622C223.782 39.1773 223.515 37.7344 222.922 36.4124C222.33 35.0903 221.43 33.927 220.296 33.018C217.712 31.1365 214.555 30.1934 211.355 30.3468H198.448C196.743 30.3468 195.361 31.7293 195.361 33.4347V49.1234ZM195.361 87.1439C195.361 88.8493 196.743 90.2318 198.448 90.2318H211.637C214.901 90.3872 218.12 89.421 220.751 87.496C221.909 86.5602 222.827 85.366 223.43 84.0107C224.034 82.6554 224.306 81.1776 224.224 79.6981V78.3841C224.308 76.9105 224.044 75.4378 223.452 74.0837C222.861 72.7296 221.958 71.5318 220.816 70.5861C218.17 68.6419 214.924 67.6744 211.637 67.8503H198.448C196.743 67.8503 195.361 69.2328 195.361 70.9383V87.1439Z" fill="black"/>
<path d="M283.119 107.616C277.151 107.746 271.251 106.336 265.997 103.523C261.11 100.837 257.102 96.8148 254.451 91.934C251.593 86.4952 250.174 80.4243 250.328 74.2916V72.7192C250.173 66.594 251.568 60.528 254.386 55.0768C256.987 50.2029 260.951 46.1785 265.801 43.4876C271.03 40.6702 276.911 39.2592 282.859 39.3947C288.702 39.2751 294.464 40.7665 299.504 43.7029C304.21 46.5092 308.029 50.569 310.528 55.4214C313.242 60.813 314.59 66.7799 314.456 72.8053V75.3181C314.456 77.0235 313.074 78.406 311.368 78.406H270.233C268.511 78.406 267.09 79.8298 267.481 81.5063C267.706 82.4707 268.03 83.4125 268.449 84.3167C269.308 86.1719 270.55 87.8275 272.095 89.1767C275.273 91.965 279.4 93.4512 283.64 93.3342C287.304 93.6391 290.951 92.5708 293.861 90.34C295.154 89.1964 296.296 87.9 297.261 86.4826C298.246 85.0361 300.143 84.3763 301.696 85.1841L309.515 89.2523C311.065 90.0588 311.647 91.9969 310.673 93.4478C309.58 95.0781 308.371 96.631 307.056 98.0948C304.466 100.946 301.321 103.247 297.811 104.859C293.187 106.868 288.164 107.811 283.119 107.616ZM268.115 62.6813C267.431 64.418 268.891 66.0844 270.758 66.0844H294.317C296.103 66.0844 297.547 64.5503 296.981 62.857C296.784 62.2689 296.544 61.6942 296.263 61.1377C295.484 59.5949 294.402 58.2226 293.08 57.1017C290.017 54.9044 286.334 53.7215 282.555 53.7215C278.776 53.7215 275.093 54.9044 272.03 57.1017C270.287 58.6399 268.952 60.5561 268.115 62.6813Z" fill="black"/>
<path d="M327.105 105.814C325.403 105.81 324.025 104.428 324.025 102.726V87.7237C324.025 86.8018 324.437 85.9281 325.149 85.3415L359.17 57.2815C359.507 57.0035 359.703 56.5893 359.703 56.1522C359.703 55.3437 359.047 54.6883 358.239 54.6883H328.437C326.732 54.6883 325.349 53.3057 325.349 51.6003V44.2266C325.349 42.5212 326.732 41.1387 328.437 41.1387H374.735C376.441 41.1387 377.823 42.5212 377.823 44.2266V59.3716C377.823 60.2935 377.411 61.1672 376.7 61.7538L342.679 89.8137C342.341 90.0918 342.146 90.506 342.146 90.9431C342.146 91.7516 342.802 92.407 343.61 92.407H375.777C377.483 92.407 378.865 93.7895 378.865 95.495V102.86C378.865 104.569 377.477 105.953 375.769 105.948L327.105 105.814Z" fill="black"/>
<path d="M422.551 107.617C416.535 107.702 410.584 106.366 405.19 103.718C400.108 101.189 395.872 97.2535 392.994 92.3873C389.893 86.9576 388.347 80.7898 388.523 74.551V72.3969C388.347 66.1581 389.893 59.9904 392.994 54.5607C395.872 49.6944 400.108 45.7592 405.19 43.2299C410.643 40.6625 416.603 39.3306 422.638 39.3306C428.673 39.3306 434.633 40.6625 440.086 43.2299C445.164 45.7652 449.398 49.6991 452.282 54.5607C455.375 59.9925 456.914 66.1601 456.731 72.3969V74.551C456.914 80.7878 455.375 86.9555 452.282 92.3873C449.398 97.2489 445.164 101.183 440.086 103.718C434.64 106.393 428.627 107.73 422.551 107.617ZM422.551 93.0889C422.551 93.0586 422.576 93.0343 422.607 93.0352C424.911 93.1026 427.205 92.7076 429.351 91.8736C431.515 91.0329 433.484 89.7638 435.138 88.1436C436.884 86.2723 438.227 84.0675 439.085 81.6638C439.943 79.2601 440.298 76.7079 440.13 74.1633V72.8493C440.296 70.3068 439.946 67.7569 439.1 65.3515C438.253 62.9461 436.928 60.7342 435.203 58.8474C431.758 55.7155 427.256 53.9783 422.584 53.9783C417.912 53.9783 413.41 55.7155 409.964 58.8474C408.216 60.7212 406.872 62.9295 406.014 65.3372C405.155 67.7448 404.801 70.3011 404.973 72.8493V74.1633C404.799 76.7084 405.152 79.2619 406.011 81.6663C406.869 84.0708 408.215 86.2752 409.964 88.1436C411.608 89.7842 413.573 91.0739 415.738 91.9333C417.886 92.7863 420.186 93.1976 422.499 93.1425C422.528 93.1418 422.551 93.118 422.551 93.0889Z" fill="black"/>
<path d="M472.211 105.806C470.506 105.806 469.123 104.424 469.123 102.718V44.2702C469.123 42.5648 470.506 41.1823 472.211 41.1823H482.29C483.995 41.1823 485.377 42.5648 485.377 44.2703V48.1736C485.377 48.9879 486.038 49.6481 486.852 49.6481C487.4 49.6481 487.898 49.3415 488.178 48.8703C489.533 46.5861 491.403 44.6393 493.646 43.1857C496.532 41.1608 500.894 40.1268 506.667 40.1268C511.344 40.0276 515.958 41.2208 519.991 43.5734C523.777 45.8689 526.843 49.1659 528.846 53.0946C531.027 57.4766 532.107 62.3179 531.992 67.2043V102.675C531.992 104.381 530.61 105.763 528.905 105.763H518.544C516.838 105.763 515.456 104.381 515.456 102.675V68.5614C515.76 64.5844 514.465 60.6496 511.853 57.6184C510.48 56.3468 508.859 55.3677 507.09 54.7416C505.321 54.1155 503.441 53.8557 501.567 53.9779C499.342 53.8531 497.119 54.2412 495.071 55.112C493.022 55.9828 491.205 57.3126 489.761 58.9971C486.739 63.0174 485.247 67.97 485.551 72.9774V102.718C485.551 104.424 484.169 105.806 482.463 105.806H472.211Z" fill="black"/>
<path d="M555.43 33.6649C552.631 33.7342 549.917 32.7046 547.878 30.7999C545.89 28.7866 544.776 26.0797 544.776 23.2604C544.776 20.4412 545.89 17.7343 547.878 15.721C549.917 13.8162 552.631 12.7867 555.43 12.8559C556.825 12.8076 558.215 13.0362 559.519 13.5282C560.823 14.0202 562.016 14.7657 563.026 15.721C564.959 17.7624 566.035 20.4587 566.035 23.2604C566.035 26.0622 564.959 28.7585 563.026 30.7999C562.016 31.7552 560.823 32.5007 559.519 32.9927C558.215 33.4847 556.825 33.7132 555.43 33.6649ZM550.25 105.807C548.545 105.807 547.162 104.424 547.162 102.719V44.2708C547.162 42.5654 548.545 41.1828 550.25 41.1828H560.611C562.316 41.1828 563.699 42.5654 563.699 44.2708V102.719C563.699 104.424 562.316 105.807 560.611 105.807H550.25Z" fill="black"/>
</g>
<defs>
<filter id="filter0_d_267_117" x="0.374023" y="0.496094" width="578.237" height="132.032" filterUnits="userSpaceOnUse" color-interpolation-filters="sRGB">
<feFlood flood-opacity="0" result="BackgroundImageFix"/>
<feColorMatrix in="SourceAlpha" type="matrix" values="0 0 0 0 0 0 0 0 0 0 0 0 0 0 0 0 0 0 127 0" result="hardAlpha"/>
<feOffset dy="4"/>
<feGaussianBlur stdDeviation="2"/>
<feComposite in2="hardAlpha" operator="out"/>
<feColorMatrix type="matrix" values="0 0 0 0 0 0 0 0 0 0 0 0 0 0 0 0 0 0 0.25 0"/>
<feBlend mode="normal" in2="BackgroundImageFix" result="effect1_dropShadow_267_117"/>
<feBlend mode="normal" in="SourceGraphic" in2="effect1_dropShadow_267_117" result="shape"/>
</filter>
<clipPath id="clip0_267_117">
<rect width="124.356" height="124.032" fill="white" transform="translate(4.37402 0.496094)"/>
</clipPath>
</defs>
</svg>
