<svg width="571" height="125" viewBox="0 0 571 125" fill="none" xmlns="http://www.w3.org/2000/svg">
<g clip-path="url(#clip0_267_21)">
<path d="M64.8227 0.371972C76.4246 0.371972 87.7554 -0.335094 98.9565 0.560528C111.878 1.59167 122.473 12.6514 124.293 25.2314C126.308 39.1194 119.491 51.8879 107.029 57.5798C101.124 60.2563 94.512 60.9514 88.1796 59.5613C81.8473 58.1713 76.1343 54.7706 71.8934 49.8669C67.2975 44.5639 64.7167 38.3711 64.6106 31.3534C64.4633 21.5428 64.5694 11.7263 64.5811 1.89218C64.6274 1.3806 64.7081 0.872702 64.8227 0.371972Z" fill="#0C3D24"/>
<path d="M64.8241 124.057C64.7121 123.038 64.5825 122.378 64.5825 121.7C64.5825 112.273 64.3881 102.845 64.5825 93.4175C64.7086 86.0508 67.5367 78.9872 72.5292 73.569C77.5217 68.1507 84.3308 64.7554 91.6625 64.0281C98.9943 63.3009 106.338 65.2925 112.297 69.6245C118.257 73.9565 122.417 80.3269 123.988 87.5252C128.036 105.868 114.49 123.468 95.7054 123.975C85.5471 124.275 75.3477 124.057 64.8241 124.057Z" fill="#0C3D24"/>
<path d="M10.2579 59.3813C4.79319 60.1983 0.392578 55.5536 0.392578 50.0281V10.6481C0.392578 4.96335 5.00096 0.35498 10.6857 0.35498H50.2322C55.6998 0.35498 60.3175 4.66802 59.5235 10.0777C56.0248 33.9136 35.5195 55.6044 10.2579 59.3813Z" fill="#0C3D24"/>
<path d="M59.4573 113.884C60.342 119.413 55.669 123.925 50.0703 123.925H10.6671C4.9824 123.925 0.374023 119.317 0.374023 113.632V74.002C0.374023 68.617 4.56209 64.0352 9.89865 64.7556C32.8817 67.8579 55.2626 87.6709 59.4573 113.884Z" fill="#0C3D24"/>
<path d="M54.9369 74.2161C53.4533 74.2358 51.9806 73.9597 50.6047 73.4035C49.2287 72.8474 47.9771 72.0224 46.9228 70.9768C45.8684 69.9313 45.0325 68.686 44.4636 67.3136C43.8948 65.9411 43.6044 64.4689 43.6095 62.9829C43.5742 61.4655 43.8487 59.9568 44.416 58.5493C44.9833 57.1419 45.8315 55.8654 46.9086 54.7977C47.9857 53.73 49.2692 52.8939 50.6803 52.3403C52.0914 51.7868 53.6004 51.5276 55.115 51.5786C56.5967 51.5852 58.0623 51.8866 59.4267 52.4652C60.7911 53.0438 62.0271 53.8882 63.063 54.9492C64.0989 56.0102 64.914 57.2666 65.461 58.6457C66.008 60.0248 66.276 61.4992 66.2495 62.9829C66.2515 64.4668 65.9596 65.9364 65.3906 67.3065C64.8216 68.6766 63.9869 69.9201 62.9347 70.9648C61.8826 72.0096 60.6339 72.8349 59.2611 73.393C57.8882 73.9511 56.4185 74.2309 54.9369 74.2161Z" fill="#0C3D24"/>
<path d="M55.1465 47.4651L55.1768 47.4661H55.2061C57.0967 47.4746 58.9687 47.8354 60.7256 48.5295L61.0752 48.6731C62.8162 49.4114 64.404 50.4679 65.7578 51.7874L66.0264 52.0549C67.4367 53.4995 68.5461 55.2103 69.291 57.0881C70.036 58.9663 70.4014 60.9746 70.3652 62.9954V63.0354C70.3678 64.9305 70.0182 66.8084 69.3359 68.5735L69.1953 68.925C68.4688 70.6745 67.4235 72.2718 66.1152 73.637L65.8506 73.9075C64.5073 75.2413 62.9285 76.3119 61.1963 77.0667L60.8477 77.2131C58.9786 77.973 56.9779 78.3543 54.9609 78.3342H54.5342C52.6435 78.3123 50.7721 77.9383 49.0166 77.2288C47.2607 76.519 45.6533 75.487 44.2764 74.1877L44.0049 73.925C42.6592 72.5905 41.5742 71.0168 40.8057 69.2854L40.6562 68.9368C39.8816 67.0678 39.4863 65.0631 39.4932 63.0393V63.012L39.4922 62.9846C39.4473 61.0483 39.7731 59.1224 40.4502 57.3108L40.5898 56.9504C41.3136 55.1547 42.3737 53.5153 43.7109 52.1204L43.9824 51.845C45.3565 50.483 46.9769 49.3975 48.7559 48.6467L49.1133 48.5012C50.9128 47.7953 52.8298 47.4417 54.7598 47.4573L55.1465 47.4651Z" stroke="#0C3D24" stroke-width="4.11724"/>
</g>
<path d="M165.062 105.42C163.357 105.418 161.977 104.036 161.977 102.332V93.4257C161.977 91.7203 163.359 90.3378 165.064 90.3378H170.955C172.66 90.3378 174.043 88.9553 174.043 87.2499V32.4638C174.043 30.7584 172.66 29.3759 170.955 29.3759H165.064C163.359 29.3759 161.977 27.9933 161.977 26.2879V17.3848C161.977 15.6794 163.359 14.2969 165.064 14.2969H209.199C214.22 14.1899 219.206 15.1444 223.826 17.0973C227.752 18.7818 231.116 21.5383 233.527 25.046C235.918 28.7009 237.136 32.9897 237.02 37.3462V38.6602C237.16 42.2118 236.343 45.7361 234.655 48.8707C233.283 51.3007 231.377 53.3918 229.078 54.9884C227.524 56.0676 225.848 56.9598 224.085 57.6471C223.431 57.9022 222.98 58.5208 222.98 59.2231C222.98 59.9445 223.455 60.5751 224.134 60.8168C225.942 61.46 227.668 62.3162 229.273 63.368C231.68 64.9461 233.68 67.0639 235.111 69.5504C236.858 72.7895 237.697 76.4347 237.541 80.1057V81.3981C237.66 85.9599 236.422 90.4553 233.982 94.3229C231.602 97.9549 228.209 100.821 224.217 102.573C219.656 104.578 214.707 105.564 209.72 105.46L165.062 105.42ZM191.361 48.734C191.361 50.4394 192.743 51.8219 194.448 51.8219H207.355C210.543 51.9559 213.679 50.9891 216.23 49.0861C217.369 48.1915 218.277 47.0417 218.88 45.731C219.484 44.4204 219.766 42.9863 219.703 41.5466V40.2326C219.782 38.7879 219.515 37.345 218.922 36.023C218.33 34.7009 217.43 33.5376 216.296 32.6286C213.712 30.7471 210.555 29.804 207.355 29.9574H194.448C192.743 29.9574 191.361 31.3399 191.361 33.0453V48.734ZM191.361 86.7545C191.361 88.4599 192.743 89.8424 194.448 89.8424H207.637C210.901 89.9978 214.12 89.0316 216.751 87.1066C217.909 86.1708 218.827 84.9765 219.43 83.6213C220.034 82.266 220.306 80.7882 220.224 79.3087V77.9947C220.308 76.5211 220.044 75.0484 219.452 73.6943C218.861 72.3402 217.958 71.1424 216.816 70.1967C214.17 68.2525 210.924 67.285 207.637 67.4609H194.448C192.743 67.4609 191.361 68.8434 191.361 70.5489V86.7545Z" fill="#0C3D24"/>
<path d="M279.119 107.227C273.151 107.356 267.251 105.946 261.997 103.134C257.11 100.448 253.102 96.4254 250.451 91.5446C247.593 86.1058 246.174 80.0349 246.328 73.9022V72.3298C246.173 66.2046 247.568 60.1386 250.386 54.6874C252.987 49.8135 256.951 45.7891 261.801 43.0982C267.03 40.2808 272.911 38.8698 278.859 39.0053C284.702 38.8857 290.464 40.3771 295.504 43.3135C300.21 46.1198 304.029 50.1796 306.528 55.032C309.242 60.4236 310.59 66.3905 310.456 72.4159V74.9286C310.456 76.6341 309.074 78.0166 307.368 78.0166H266.233C264.511 78.0166 263.09 79.4404 263.481 81.1169C263.706 82.0813 264.03 83.0231 264.449 83.9273C265.308 85.7825 266.55 87.4381 268.095 88.7873C271.273 91.5756 275.4 93.0618 279.64 92.9448C283.304 93.2497 286.951 92.1814 289.861 89.9506C291.154 88.8069 292.296 87.5106 293.261 86.0932C294.246 84.6467 296.143 83.9869 297.696 84.7947L305.515 88.8629C307.065 89.6694 307.647 91.6075 306.673 93.0584C305.58 94.6887 304.371 96.2416 303.056 97.7054C300.466 100.557 297.321 102.858 293.811 104.469C289.187 106.479 284.164 107.421 279.119 107.227ZM264.115 62.2919C263.431 64.0286 264.891 65.695 266.758 65.695H290.317C292.103 65.695 293.547 64.1609 292.981 62.4676C292.784 61.8795 292.544 61.3048 292.263 60.7483C291.484 59.2055 290.402 57.8332 289.08 56.7123C286.017 54.515 282.334 53.3321 278.555 53.3321C274.776 53.3321 271.093 54.515 268.03 56.7123C266.287 58.2505 264.952 60.1667 264.115 62.2919Z" fill="#0C3D24"/>
<path d="M323.105 105.425C321.403 105.42 320.025 104.039 320.025 102.337V87.3343C320.025 86.4123 320.437 85.5386 321.149 84.952L355.17 56.8921C355.507 56.6141 355.703 56.1998 355.703 55.7628C355.703 54.9543 355.047 54.2989 354.239 54.2989H324.437C322.732 54.2989 321.349 52.9163 321.349 51.2109V43.8372C321.349 42.1318 322.732 40.7493 324.437 40.7493H370.735C372.441 40.7493 373.823 42.1318 373.823 43.8372V58.9822C373.823 59.9041 373.411 60.7778 372.7 61.3644L338.679 89.4243C338.341 89.7024 338.146 90.1166 338.146 90.5537C338.146 91.3622 338.802 92.0176 339.61 92.0176H371.777C373.483 92.0176 374.865 93.4001 374.865 95.1055V102.471C374.865 104.18 373.477 105.563 371.769 105.559L323.105 105.425Z" fill="#0C3D24"/>
<path d="M418.551 107.227C412.535 107.313 406.584 105.977 401.19 103.329C396.108 100.799 391.872 96.8641 388.994 91.9979C385.893 86.5682 384.347 80.4004 384.523 74.1616V72.0075C384.347 65.7687 385.893 59.601 388.994 54.1713C391.872 49.305 396.108 45.3697 401.19 42.8405C406.643 40.2731 412.603 38.9412 418.638 38.9412C424.673 38.9412 430.633 40.2731 436.086 42.8405C441.164 45.3758 445.398 49.3097 448.282 54.1713C451.375 59.6031 452.914 65.7707 452.731 72.0075V74.1616C452.914 80.3984 451.375 86.5661 448.282 91.9979C445.398 96.8595 441.164 100.793 436.086 103.329C430.64 106.003 424.627 107.341 418.551 107.227ZM418.551 92.6995C418.551 92.6692 418.576 92.6449 418.607 92.6458C420.911 92.7132 423.205 92.3182 425.351 91.4842C427.515 90.6435 429.484 89.3744 431.138 87.7542C432.884 85.8829 434.227 83.6781 435.085 81.2744C435.943 78.8707 436.298 76.3185 436.13 73.7739V72.4599C436.296 69.9173 435.946 67.3675 435.1 64.9621C434.253 62.5567 432.928 60.3448 431.203 58.458C427.758 55.3261 423.256 53.5889 418.584 53.5889C413.912 53.5889 409.41 55.3261 405.964 58.458C404.216 60.3318 402.872 62.5401 402.014 64.9478C401.155 67.3554 400.801 69.9117 400.973 72.4599V73.7739C400.799 76.319 401.152 78.8725 402.011 81.2769C402.869 83.6814 404.215 85.8858 405.964 87.7542C407.608 89.3948 409.573 90.6845 411.738 91.5439C413.886 92.3969 416.186 92.8082 418.499 92.7531C418.528 92.7524 418.551 92.7286 418.551 92.6995Z" fill="#0C3D24"/>
<path d="M468.211 105.417C466.506 105.417 465.123 104.034 465.123 102.329V43.8808C465.123 42.1754 466.506 40.7929 468.211 40.7929H478.29C479.995 40.7929 481.377 42.1754 481.377 43.8808V47.7842C481.377 48.5985 482.038 49.2586 482.852 49.2586C483.4 49.2586 483.898 48.9521 484.178 48.4809C485.533 46.1967 487.403 44.2499 489.646 42.7962C492.532 40.7714 496.894 39.7374 502.667 39.7374C507.344 39.6382 511.958 40.8314 515.991 43.184C519.777 45.4795 522.843 48.7765 524.846 52.7052C527.027 57.0872 528.107 61.9285 527.992 66.8149V102.286C527.992 103.991 526.61 105.374 524.905 105.374H514.544C512.838 105.374 511.456 103.991 511.456 102.286V68.172C511.76 64.195 510.465 60.2602 507.853 57.229C506.48 55.9574 504.859 54.9783 503.09 54.3522C501.321 53.7261 499.441 53.4662 497.567 53.5885C495.342 53.4637 493.119 53.8518 491.071 54.7226C489.022 55.5934 487.205 56.9232 485.761 58.6076C482.739 62.628 481.247 67.5806 481.551 72.588V102.329C481.551 104.034 480.169 105.417 478.463 105.417H468.211Z" fill="#0C3D24"/>
<path d="M551.43 33.2755C548.631 33.3448 545.917 32.3152 543.878 30.4105C541.89 28.3972 540.776 25.6903 540.776 22.871C540.776 20.0518 541.89 17.3449 543.878 15.3316C545.917 13.4268 548.631 12.3973 551.43 12.4665C552.825 12.4182 554.215 12.6468 555.519 13.1388C556.823 13.6307 558.016 14.3763 559.026 15.3316C560.959 17.373 562.035 20.0693 562.035 22.871C562.035 25.6728 560.959 28.3691 559.026 30.4105C558.016 31.3658 556.823 32.1113 555.519 32.6033C554.215 33.0953 552.825 33.3238 551.43 33.2755ZM546.25 105.417C544.545 105.417 543.162 104.035 543.162 102.33V43.8814C543.162 42.176 544.545 40.7934 546.25 40.7934H556.611C558.316 40.7934 559.699 42.176 559.699 43.8814V102.33C559.699 104.035 558.316 105.417 556.611 105.417H546.25Z" fill="#0C3D24"/>
<defs>
<clipPath id="clip0_267_21">
<rect width="124.356" height="124.032" fill="white" transform="translate(0.374023 0.106934)"/>
</clipPath>
</defs>
</svg>
